Coordinates
version=1
nRows=10
nColumns=40
inDegrees=yes

Units are S.I. units (second, meters, Newtons, ...)
Angles are in degrees.

endheader
time	pelvis_tilt	pelvis_list	pelvis_rotation	pelvis_tx	pelvis_ty	pelvis_tz	hip_flexion_r	hip_adduction_r	hip_rotation_r	knee_angle_r	knee_angle_r_beta	ankle_angle_r	subtalar_angle_r	mtp_angle_r	hip_flexion_l	hip_adduction_l	hip_rotation_l	knee_angle_l	knee_angle_l_beta	ankle_angle_l	subtalar_angle_l	mtp_angle_l	lumbar_extension	lumbar_bending	lumbar_rotation	arm_flex_r	arm_add_r	arm_rot_r	elbow_flex_r	pro_sup_r	wrist_flex_r	wrist_dev_r	arm_flex_l	arm_add_l	arm_rot_l	elbow_flex_l	pro_sup_l	wrist_flex_l	wrist_dev_l
     30.40250000	     -5.46022179	     -4.57044163	      3.33910298	      1.06811800	      0.91965638	      0.42740636	     23.88743274	      0.89639471	    -16.37573004	     16.82504973	     16.82504973	      1.46783646	     -1.72754567	     -3.78743452	      6.13838949	    -10.66728042	     -6.45416694	     39.36982523	     39.36982523	     11.46587097	    -15.17483449	     -6.63430045	    -11.77802754	      6.49178985	      1.74309173	      0.98725150	    -13.45054016	     -7.37952480	     34.92596080	     45.98999636	      0.00000000	      0.00000000	      2.50314496	    -11.69788791	     -7.15166964	     82.58226098	     47.92773675	      0.00000000	      0.00000000
     30.41457143	     -5.42149839	     -4.70329494	      3.57158914	      1.06888555	      0.92090615	      0.42968032	     23.10435943	      1.21412611	    -16.64248562	     16.50323989	     16.50323989	      2.08026686	     -1.44656443	     -3.85918646	      8.25561401	    -11.12017084	     -5.28542132	     43.53585098	     43.53585098	      9.93579204	    -16.57537949	     -4.65165073	    -11.79964710	      6.63323074	      2.21347894	      1.51351802	    -14.20803691	     -4.99843100	     37.45471108	     45.74926771	      0.00000000	      0.00000000	      2.80131078	    -11.10426313	     -6.48828948	     78.57553663	     47.82401124	      0.00000000	      0.00000000
     30.42664286	     -5.45620077	     -4.90681135	      3.86285359	      1.06941580	      0.92174429	      0.43174639	     22.40587991	      1.58246610	    -16.95418332	     16.13378076	     16.13378076	      2.47229825	     -1.33326539	     -4.49077734	     10.67153565	    -11.55794782	     -4.01689367	     47.85668902	     47.85668902	      9.26134601	    -17.32074060	     -0.83046024	    -11.83011960	      6.86553432	      2.18277874	      2.67454747	    -14.72340923	     -3.78638175	     39.48833642	     45.61481838	      0.00000000	      0.00000000	      2.35955998	    -10.91689277	     -5.87310594	     75.73774593	     47.73682127	      0.00000000	      0.00000000
     30.43871429	     -5.50715008	     -5.11920855	      4.14960345	      1.06972309	      0.92235028	      0.43373188	     21.74510444	      1.96476256	    -17.25632057	     15.74784477	     15.74784477	      2.76153579	     -1.23842559	     -5.11992755	     13.19394396	    -11.89931053	     -2.70111433	     52.03331724	     52.03331724	      8.90287550	    -17.76255339	      3.42659207	    -11.80088075	      7.06329540	      2.24350171	      3.81390199	    -15.21263289	     -2.84588827	     41.50801539	     45.50530894	      0.00000000	      0.00000000	      1.99404587	    -10.72533184	     -5.06138436	     73.00883033	     47.63680212	      0.00000000	      0.00000000
     30.45078571	     -5.57190062	     -5.35818806	      4.39431389	      1.06984607	      0.92276587	      0.43573658	     21.16821324	      2.37583512	    -17.54005432	     15.45612745	     15.45612745	      3.05442508	     -1.15297575	     -5.50633992	     15.65994618	    -12.21410657	     -1.48722984	     55.74977290	     55.74977290	      8.15869427	    -18.19859653	      5.95852792	    -11.78819454	      7.25078610	      2.17407190	      5.35060530	    -15.44789827	     -2.41049414	     43.17951979	     45.43647136	      0.00000000	      0.00000000	      1.42978541	    -10.65442179	     -4.43940131	     70.49313505	     47.54899317	      0.00000000	      0.00000000
     30.46285714	     -5.65111350	     -5.63262171	      4.65225051	      1.06983217	      0.92294996	      0.43765899	     20.64083153	      2.81608423	    -17.78297309	     15.20205320	     15.20205320	      3.44110490	     -1.08150969	     -5.73922230	     18.12081914	    -12.52366247	     -0.34558379	     59.07012134	     59.07012134	      7.28332782	    -18.52547985	      7.11435253	    -11.71604477	      7.45965600	      1.97786282	      6.96892777	    -15.63504698	     -2.27616464	     44.50786389	     45.39260746	      0.00000000	      0.00000000	      0.63682230	    -10.52329841	     -3.90055084	     68.64773341	     47.47535271	      0.00000000	      0.00000000
     30.47492857	     -5.64797003	     -5.79194436	      4.83165933	      1.06967329	      0.92326387	      0.43943105	     20.12117423	      3.12037017	    -17.96287473	     15.12726012	     15.12726012	      3.75414948	     -1.03995238	     -6.23308871	     20.49327563	    -12.51108463	      0.82678539	     62.14479671	     62.14479671	      7.83872752	    -18.58301669	     11.30059877	    -11.77568903	      7.58225162	      2.45916973	      7.99029776	    -16.42587161	     -1.09577176	     47.08368713	     45.25856589	      0.00000000	      0.00000000	      0.98298943	    -10.18577102	     -2.87166391	     64.59358687	     47.33900799	      0.00000000	      0.00000000
     30.48700000	     -5.70375013	     -5.95804897	      4.99556461	      1.06938183	      0.92347647	      0.44118879	     19.67127099	      3.43408692	    -18.11697589	     15.04342758	     15.04342758	      4.12847232	     -0.95902383	     -6.40871794	     22.80310070	    -12.52582556	      1.78748577	     64.60908218	     64.60908218	      7.91372456	    -18.64888394	     13.13693033	    -11.82114314	      7.66015168	      2.85814336	      9.11799034	    -17.06697156	     -0.42150102	     49.56731102	     45.16432720	      0.00000000	      0.00000000	      0.74141905	    -10.02916013	     -1.78105639	     61.96596319	     47.21368660	      0.00000000	      0.00000000
     30.49907143	     -5.71437446	     -6.07440243	      5.12607948	      1.06904225	      0.92375988	      0.44295185	     19.19665180	      3.70598586	    -18.20300275	     15.00702225	     15.00702225	      4.53040308	     -0.90162266	     -6.48028105	     24.90584628	    -12.52292762	      2.51418196	     66.46048209	     66.46048209	      7.71386426	    -18.73793444	     13.34023937	    -11.91665783	      7.64491571	      2.72415196	     11.00729271	    -17.13225121	     -0.33849861	     51.13688062	     45.12200612	      0.00000000	      0.00000000	     -0.03993911	    -10.00113262	     -1.29181756	     59.93337562	     47.14045831	      0.00000000	      0.00000000
     30.51114286	     -5.77008199	     -6.19643392	      5.24745126	      1.06856173	      0.92405622	      0.44459645	     18.78596848	      3.95962906	    -18.36571825	     14.98373491	     14.98373491	      4.96746552	     -0.73991376	     -6.31580038	     27.01631465	    -12.46296872	      3.17036516	     67.86721611	     67.86721611	      7.93792224	    -18.76778645	     14.13697123	    -11.93811553	      7.67134722	      3.32155188	     12.16717138	    -17.91038649	      0.48959761	     53.44267045	     45.03437387	      0.00000000	      0.00000000	      0.14758044	     -9.58502210	     -0.60406510	     56.25422917	     47.03511819	      0.00000000	      0.00000000
